<svg width="20" height="20" viewBox="0 0 20 20" fill="none" xmlns="http://www.w3.org/2000/svg">
    <path
        d="M5.92578 17.4883L5.43359 18.6406C4.70312 18.2695 4.03125 17.8125 3.42188 17.2773L4.30859 16.3906C4.79688 16.8164 5.33984 17.1875 5.92578 17.4883ZM1.39844 10.625H0.144531C0.199219 11.4531 0.355469 12.2539 0.601563 13.0117L1.76562 12.5469C1.57422 11.9336 1.44531 11.2891 1.39844 10.625ZM1.39844 9.375C1.45312 8.64062 1.60156 7.92969 1.83203 7.26172L0.679688 6.76953C0.386719 7.58984 0.203125 8.46484 0.144531 9.375H1.39844ZM2.32422 6.11328C2.62891 5.53125 2.99609 4.98828 3.42188 4.49219L2.53516 3.60547C2 4.21484 1.53906 4.88672 1.17188 5.61719L2.32422 6.11328ZM15.3203 16.3906C14.7773 16.8594 14.1719 17.2617 13.5195 17.5781L13.9844 18.7422C14.793 18.3555 15.5391 17.8594 16.207 17.2734L15.3203 16.3906ZM4.30469 3.60938C4.84766 3.14062 5.45312 2.73828 6.10547 2.42188L5.64062 1.25781C4.83203 1.64453 4.08594 2.14063 3.42188 2.72656L4.30469 3.60938ZM17.3008 13.8867C16.9961 14.4688 16.6289 15.0117 16.2031 15.5078L17.0898 16.3945C17.625 15.7852 18.0859 15.1094 18.4531 14.3828L17.3008 13.8867ZM18.2266 10.625C18.1719 11.3594 18.0234 12.0703 17.793 12.7383L18.9453 13.2305C19.2383 12.4062 19.4219 11.5312 19.4766 10.6211H18.2266V10.625ZM12.3594 18.0469C11.7461 18.2422 11.1016 18.3672 10.4375 18.4141V19.668C11.2656 19.6133 12.0664 19.457 12.8242 19.2109L12.3594 18.0469ZM9.1875 18.4141C8.45312 18.3594 7.74219 18.2109 7.07422 17.9805L6.58203 19.1328C7.40625 19.4258 8.28125 19.6094 9.19141 19.6641V18.4141H9.1875ZM17.8594 7.45312C18.0547 8.06641 18.1797 8.71094 18.2266 9.375H19.4805C19.4258 8.54688 19.2695 7.74609 19.0234 6.98828L17.8594 7.45312ZM3.42188 15.5078C2.95312 14.9648 2.55078 14.3594 2.23438 13.707L1.07031 14.1719C1.45703 14.9805 1.95313 15.7266 2.53906 16.3945L3.42188 15.5078ZM10.4375 1.58594C11.1719 1.64062 11.8789 1.78906 12.5508 2.01953L13.043 0.867188C12.2227 0.574219 11.3477 0.390625 10.4375 0.332031V1.58594ZM7.26562 1.95312C7.87891 1.75781 8.52344 1.63281 9.1875 1.58594V0.332031C8.35938 0.386719 7.55859 0.542969 6.80078 0.789063L7.26562 1.95312ZM17.0898 3.60547L16.2031 4.49219C16.6719 5.03516 17.0742 5.64062 17.3945 6.29297L18.5586 5.82812C18.1719 5.01953 17.6758 4.27344 17.0898 3.60547ZM15.3203 3.60938L16.207 2.72266C15.5977 2.1875 14.9258 1.72656 14.1953 1.35938L13.7031 2.51172C14.2812 2.81641 14.8281 3.18359 15.3203 3.60938Z"
        fill="#6B7280" />
    <path
        d="M9.8125 15.3125C10.4166 15.3125 10.9062 14.8228 10.9062 14.2188C10.9062 13.6147 10.4166 13.125 9.8125 13.125C9.20844 13.125 8.71875 13.6147 8.71875 14.2188C8.71875 14.8228 9.20844 15.3125 9.8125 15.3125Z"
        fill="#6B7280" />
    <path
        d="M10.1132 12.1875H9.48824C9.23043 12.1875 9.01949 11.9766 9.01949 11.7188C9.01949 8.94531 12.0429 9.22266 12.0429 7.50781C12.0429 6.72656 11.3476 5.9375 9.80074 5.9375C8.66403 5.9375 8.07028 6.3125 7.48824 7.05859C7.3359 7.25391 7.05465 7.29297 6.85543 7.15234L6.34371 6.79297C6.12496 6.64062 6.07418 6.33203 6.24215 6.12109C7.07028 5.05859 8.05465 4.375 9.80465 4.375C11.8476 4.375 13.6093 5.53906 13.6093 7.50781C13.6093 10.1484 10.5859 9.98828 10.5859 11.7188C10.582 11.9766 10.3711 12.1875 10.1132 12.1875Z"
        fill="#6B7280" />
</svg>
