<svg width="21" height="20" viewBox="0 0 21 20" fill="none" xmlns="http://www.w3.org/2000/svg">
<g clip-path="url(#clip0_436_129)">
<path d="M0.8125 0H20.8125V20H0.8125V0Z" fill="#162044" fill-opacity="0.3"/>
<path d="M6.92578 17.4883L6.43359 18.6406C5.70312 18.2695 5.03125 17.8125 4.42188 17.2773L5.30859 16.3906C5.79688 16.8164 6.33984 17.1875 6.92578 17.4883ZM2.39844 10.625H1.14453C1.19922 11.4531 1.35547 12.2539 1.60156 13.0117L2.76562 12.5469C2.57422 11.9336 2.44531 11.2891 2.39844 10.625ZM2.39844 9.375C2.45312 8.64062 2.60156 7.92969 2.83203 7.26172L1.67969 6.76953C1.38672 7.58984 1.20312 8.46484 1.14453 9.375H2.39844ZM3.32422 6.11328C3.62891 5.53125 3.99609 4.98828 4.42188 4.49219L3.53516 3.60547C3 4.21484 2.53906 4.88672 2.17188 5.61719L3.32422 6.11328ZM16.3203 16.3906C15.7773 16.8594 15.1719 17.2617 14.5195 17.5781L14.9844 18.7422C15.793 18.3555 16.5391 17.8594 17.207 17.2734L16.3203 16.3906ZM5.30469 3.60938C5.84766 3.14062 6.45312 2.73828 7.10547 2.42188L6.64062 1.25781C5.83203 1.64453 5.08594 2.14063 4.42188 2.72656L5.30469 3.60938ZM18.3008 13.8867C17.9961 14.4688 17.6289 15.0117 17.2031 15.5078L18.0898 16.3945C18.625 15.7852 19.0859 15.1094 19.4531 14.3828L18.3008 13.8867ZM19.2266 10.625C19.1719 11.3594 19.0234 12.0703 18.793 12.7383L19.9453 13.2305C20.2383 12.4062 20.4219 11.5312 20.4766 10.6211H19.2266V10.625ZM13.3594 18.0469C12.7461 18.2422 12.1016 18.3672 11.4375 18.4141V19.668C12.2656 19.6133 13.0664 19.457 13.8242 19.2109L13.3594 18.0469ZM10.1875 18.4141C9.45312 18.3594 8.74219 18.2109 8.07422 17.9805L7.58203 19.1328C8.40625 19.4258 9.28125 19.6094 10.1914 19.6641V18.4141H10.1875ZM18.8594 7.45312C19.0547 8.06641 19.1797 8.71094 19.2266 9.375H20.4805C20.4258 8.54688 20.2695 7.74609 20.0234 6.98828L18.8594 7.45312ZM4.42188 15.5078C3.95312 14.9648 3.55078 14.3594 3.23438 13.707L2.07031 14.1719C2.45703 14.9805 2.95313 15.7266 3.53906 16.3945L4.42188 15.5078ZM11.4375 1.58594C12.1719 1.64062 12.8789 1.78906 13.5508 2.01953L14.043 0.867188C13.2227 0.574219 12.3477 0.390625 11.4375 0.332031V1.58594ZM8.26562 1.95312C8.87891 1.75781 9.52344 1.63281 10.1875 1.58594V0.332031C9.35938 0.386719 8.55859 0.542969 7.80078 0.789063L8.26562 1.95312ZM18.0898 3.60547L17.2031 4.49219C17.6719 5.03516 18.0742 5.64062 18.3945 6.29297L19.5586 5.82812C19.1719 5.01953 18.6758 4.27344 18.0898 3.60547ZM16.3203 3.60938L17.207 2.72266C16.5977 2.1875 15.9258 1.72656 15.1953 1.35938L14.7031 2.51172C15.2812 2.81641 15.8281 3.18359 16.3203 3.60938Z" fill="#6B7280"/>
<path d="M10.8125 15.3125C11.4166 15.3125 11.9062 14.8228 11.9062 14.2188C11.9062 13.6147 11.4166 13.125 10.8125 13.125C10.2084 13.125 9.71875 13.6147 9.71875 14.2188C9.71875 14.8228 10.2084 15.3125 10.8125 15.3125Z" fill="#6B7280"/>
<path d="M11.1132 12.1875H10.4882C10.2304 12.1875 10.0195 11.9766 10.0195 11.7188C10.0195 8.94531 13.0429 9.22266 13.0429 7.50781C13.0429 6.72656 12.3476 5.9375 10.8007 5.9375C9.66403 5.9375 9.07028 6.3125 8.48824 7.05859C8.3359 7.25391 8.05465 7.29297 7.85543 7.15234L7.34371 6.79297C7.12496 6.64062 7.07418 6.33203 7.24215 6.12109C8.07028 5.05859 9.05465 4.375 10.8047 4.375C12.8476 4.375 14.6093 5.53906 14.6093 7.50781C14.6093 10.1484 11.5859 9.98828 11.5859 11.7188C11.582 11.9766 11.3711 12.1875 11.1132 12.1875Z" fill="#6B7280"/>
</g>
<defs>
<clipPath id="clip0_436_129">
<path d="M0.8125 0H20.8125V20H0.8125V0Z" fill="white"/>
</clipPath>
</defs>
</svg>
