<svg width="20" height="20" viewBox="0 0 20 20" fill="none" xmlns="http://www.w3.org/2000/svg">
    <path
        d="M6.11723 15.0352L4.91019 13.8281C4.57816 13.4961 4.46097 13.0156 4.60941 12.5703C4.7266 12.2227 4.88285 11.7696 5.07035 11.25H0.937538C0.6016 11.25 0.2891 11.0703 0.121132 10.7774C-0.0468371 10.4844 -0.0429309 10.125 0.128944 9.83596L2.17973 6.37893C2.68754 5.52346 3.60551 5.00002 4.59769 5.00002H7.81254C7.90629 4.84377 8.00004 4.69924 8.09379 4.55862C11.293 -0.160134 16.0586 -0.316384 18.9024 0.207054C19.3555 0.289085 19.7071 0.644554 19.793 1.09768C20.3164 3.94534 20.1563 8.70705 15.4414 11.9063C15.3047 12 15.1563 12.0938 15 12.1875V15.4024C15 16.3946 14.4766 17.3164 13.6211 17.8203L10.1641 19.8711C9.87504 20.043 9.51566 20.0469 9.22269 19.8789C8.92972 19.711 8.75004 19.4024 8.75004 19.0625V14.875C8.19926 15.0664 7.71879 15.2227 7.35551 15.3399C6.91801 15.4805 6.44144 15.3594 6.11332 15.0352H6.11723ZM15 6.56252C15.4144 6.56252 15.8119 6.3979 16.1049 6.10488C16.3979 5.81185 16.5625 5.41442 16.5625 5.00002C16.5625 4.58562 16.3979 4.18819 16.1049 3.89517C15.8119 3.60214 15.4144 3.43752 15 3.43752C14.5856 3.43752 14.1882 3.60214 13.8952 3.89517C13.6022 4.18819 13.4375 4.58562 13.4375 5.00002C13.4375 5.41442 13.6022 5.81185 13.8952 6.10488C14.1882 6.3979 14.5856 6.56252 15 6.56252Z"
        fill="#6B7280" />
</svg>
