<svg width="21" height="20" viewBox="0 0 21 20" fill="none" xmlns="http://www.w3.org/2000/svg">
<g clip-path="url(#clip0_436_118)">
<g clip-path="url(#clip1_436_118)">
<path d="M0.15625 0H20.1562V20H0.15625V0Z" fill="#162044" fill-opacity="0.3"/>
<path d="M3.90625 3.75C3.90625 2.37109 5.02734 1.25 6.40625 1.25H17.6562C19.0352 1.25 20.1562 2.37109 20.1562 3.75V16.25C20.1562 17.6289 19.0352 18.75 17.6562 18.75H3.28125C1.55469 18.75 0.15625 17.3516 0.15625 15.625V5C0.15625 4.30859 0.714844 3.75 1.40625 3.75C2.09766 3.75 2.65625 4.30859 2.65625 5V15.625C2.65625 15.9688 2.9375 16.25 3.28125 16.25C3.625 16.25 3.90625 15.9688 3.90625 15.625V3.75ZM6.40625 4.6875V7.8125C6.40625 8.33203 6.82422 8.75 7.34375 8.75H11.7188C12.2383 8.75 12.6562 8.33203 12.6562 7.8125V4.6875C12.6562 4.16797 12.2383 3.75 11.7188 3.75H7.34375C6.82422 3.75 6.40625 4.16797 6.40625 4.6875ZM14.5312 4.375C14.5312 4.71875 14.8125 5 15.1562 5H17.0312C17.375 5 17.6562 4.71875 17.6562 4.375C17.6562 4.03125 17.375 3.75 17.0312 3.75H15.1562C14.8125 3.75 14.5312 4.03125 14.5312 4.375ZM14.5312 8.125C14.5312 8.46875 14.8125 8.75 15.1562 8.75H17.0312C17.375 8.75 17.6562 8.46875 17.6562 8.125C17.6562 7.78125 17.375 7.5 17.0312 7.5H15.1562C14.8125 7.5 14.5312 7.78125 14.5312 8.125ZM6.40625 11.875C6.40625 12.2188 6.6875 12.5 7.03125 12.5H17.0312C17.375 12.5 17.6562 12.2188 17.6562 11.875C17.6562 11.5312 17.375 11.25 17.0312 11.25H7.03125C6.6875 11.25 6.40625 11.5312 6.40625 11.875ZM6.40625 15.625C6.40625 15.9688 6.6875 16.25 7.03125 16.25H17.0312C17.375 16.25 17.6562 15.9688 17.6562 15.625C17.6562 15.2812 17.375 15 17.0312 15H7.03125C6.6875 15 6.40625 15.2812 6.40625 15.625Z" fill="#99C4F9"/>
</g>
</g>
<defs>
<clipPath id="clip0_436_118">
<rect width="20" height="20" fill="white" transform="translate(0.15625)"/>
</clipPath>
<clipPath id="clip1_436_118">
<path d="M0.15625 0H20.1562V20H0.15625V0Z" fill="white"/>
</clipPath>
</defs>
</svg>
